<svg xmlns="http://www.w3.org/2000/svg" width="1200" height="520" viewBox="0 0 1200 520" fill="none">
  <rect width="1200" height="520" fill="#f7f4eb"/>
  <rect x="40" y="60" width="150" height="70" rx="14" fill="#f8c15c" stroke="#1f2937" stroke-width="2"/>
  <text x="115" y="90" text-anchor="middle" font-family="Helvetica, Arial, sans-serif" font-size="24" fill="#1f2937">User Code</text>
  <text x="115" y="114" text-anchor="middle" font-family="Helvetica, Arial, sans-serif" font-size="16" fill="#1f2937">Python snippet</text>

  <rect x="250" y="60" width="180" height="70" rx="14" fill="#9fd3c7" stroke="#1f2937" stroke-width="2"/>
  <text x="340" y="88" text-anchor="middle" font-family="Helvetica, Arial, sans-serif" font-size="23" fill="#1f2937">AST Extract</text>
  <text x="340" y="114" text-anchor="middle" font-family="Helvetica, Arial, sans-serif" font-size="16" fill="#1f2937">imports + calls</text>

  <rect x="490" y="60" width="190" height="70" rx="14" fill="#9fd3c7" stroke="#1f2937" stroke-width="2"/>
  <text x="585" y="88" text-anchor="middle" font-family="Helvetica, Arial, sans-serif" font-size="23" fill="#1f2937">DB Lookup</text>
  <text x="585" y="114" text-anchor="middle" font-family="Helvetica, Arial, sans-serif" font-size="16" fill="#1f2937">75+ known breaks</text>

  <polygon points="775,48 895,95 775,142 655,95" fill="#f7d7a7" stroke="#1f2937" stroke-width="2"/>
  <text x="775" y="89" text-anchor="middle" font-family="Helvetica, Arial, sans-serif" font-size="20" fill="#1f2937">Unknown</text>
  <text x="775" y="112" text-anchor="middle" font-family="Helvetica, Arial, sans-serif" font-size="20" fill="#1f2937">library?</text>

  <rect x="945" y="60" width="190" height="70" rx="14" fill="#f4a261" stroke="#1f2937" stroke-width="2"/>
  <text x="1040" y="88" text-anchor="middle" font-family="Helvetica, Arial, sans-serif" font-size="23" fill="#1f2937">PyPI Fetch</text>
  <text x="1040" y="114" text-anchor="middle" font-family="Helvetica, Arial, sans-serif" font-size="16" fill="#1f2937">metadata fallback</text>

  <rect x="495" y="210" width="180" height="76" rx="14" fill="#d8c6f2" stroke="#1f2937" stroke-width="2"/>
  <text x="585" y="240" text-anchor="middle" font-family="Helvetica, Arial, sans-serif" font-size="23" fill="#1f2937">Supervisor</text>
  <text x="585" y="266" text-anchor="middle" font-family="Helvetica, Arial, sans-serif" font-size="16" fill="#1f2937">route specialist checks</text>

  <rect x="230" y="360" width="220" height="78" rx="14" fill="#cfe8ff" stroke="#1f2937" stroke-width="2"/>
  <text x="340" y="390" text-anchor="middle" font-family="Helvetica, Arial, sans-serif" font-size="22" fill="#1f2937">Import Specialist</text>
  <text x="340" y="416" text-anchor="middle" font-family="Helvetica, Arial, sans-serif" font-size="16" fill="#1f2937">module-path changes</text>

  <rect x="475" y="360" width="220" height="78" rx="14" fill="#cfe8ff" stroke="#1f2937" stroke-width="2"/>
  <text x="585" y="390" text-anchor="middle" font-family="Helvetica, Arial, sans-serif" font-size="22" fill="#1f2937">Method Specialist</text>
  <text x="585" y="416" text-anchor="middle" font-family="Helvetica, Arial, sans-serif" font-size="16" fill="#1f2937">deprecated call patterns</text>

  <rect x="720" y="360" width="220" height="78" rx="14" fill="#ffd6a5" stroke="#1f2937" stroke-width="2"/>
  <text x="830" y="390" text-anchor="middle" font-family="Helvetica, Arial, sans-serif" font-size="22" fill="#1f2937">LLM Diagnose</text>
  <text x="830" y="416" text-anchor="middle" font-family="Helvetica, Arial, sans-serif" font-size="16" fill="#1f2937">broad evidence pass</text>

  <rect x="965" y="360" width="190" height="78" rx="14" fill="#b8e3c5" stroke="#1f2937" stroke-width="2"/>
  <text x="1060" y="390" text-anchor="middle" font-family="Helvetica, Arial, sans-serif" font-size="22" fill="#1f2937">Report</text>
  <text x="1060" y="416" text-anchor="middle" font-family="Helvetica, Arial, sans-serif" font-size="16" fill="#1f2937">dedupe + confidence</text>

  <path d="M190 95H250" stroke="#1f2937" stroke-width="3" stroke-linecap="round"/>
  <path d="M430 95H490" stroke="#1f2937" stroke-width="3" stroke-linecap="round"/>
  <path d="M680 95H655" stroke="#1f2937" stroke-width="3" stroke-linecap="round"/>
  <path d="M895 95H945" stroke="#1f2937" stroke-width="3" stroke-linecap="round"/>
  <path d="M775 142V186H585V210" stroke="#1f2937" stroke-width="3" stroke-linecap="round" stroke-linejoin="round"/>
  <path d="M1040 130V186H585V210" stroke="#1f2937" stroke-width="3" stroke-linecap="round" stroke-linejoin="round"/>
  <path d="M585 286V328H340V360" stroke="#1f2937" stroke-width="3" stroke-linecap="round" stroke-linejoin="round"/>
  <path d="M585 286V360" stroke="#1f2937" stroke-width="3" stroke-linecap="round"/>
  <path d="M585 286V328H830V360" stroke="#1f2937" stroke-width="3" stroke-linecap="round" stroke-linejoin="round"/>
  <path d="M450 399H475" stroke="#1f2937" stroke-width="3" stroke-linecap="round"/>
  <path d="M695 399H720" stroke="#1f2937" stroke-width="3" stroke-linecap="round"/>
  <path d="M940 399H965" stroke="#1f2937" stroke-width="3" stroke-linecap="round"/>

  <text x="915" y="80" text-anchor="middle" font-family="Helvetica, Arial, sans-serif" font-size="16" fill="#1f2937">yes</text>
  <text x="720" y="173" text-anchor="middle" font-family="Helvetica, Arial, sans-serif" font-size="16" fill="#1f2937">no</text>
</svg>
